<mxfile host="Electron" agent="Mozilla/5.0 (Windows NT 10.0; Win64; x64) AppleWebKit/537.36 (KHTML, like Gecko) draw.io/23.1.5 Chrome/120.0.6099.109 Electron/28.1.0 Safari/537.36" modified="2025-09-25T11:30:25.179Z" version="23.1.5" etag="wXvpAH-XVUA4tqvYaZzr" type="device">
  <diagram name="Page-1" id="nC1Ii1gSzZSFUaGSdR3v">
    <mxGraphModel dx="1400" dy="1997" grid="1" gridSize="10" guides="1" tooltips="1" connect="1" arrows="1" fold="1" page="1" pageScale="1" pageWidth="827" pageHeight="1169" math="0" shadow="0">
      <root>
        <mxCell id="0" />
        <mxCell id="1" parent="0" />
        <mxCell id="yW2bLSi1osY_Zg3iNQNT-1" value="" style="shape=actor;whiteSpace=wrap;html=1;" parent="1" vertex="1">
          <mxGeometry x="90" y="-20" width="40" height="60" as="geometry" />
        </mxCell>
        <mxCell id="yW2bLSi1osY_Zg3iNQNT-2" value="" style="shape=actor;whiteSpace=wrap;html=1;" parent="1" vertex="1">
          <mxGeometry x="90" y="60" width="40" height="60" as="geometry" />
        </mxCell>
        <mxCell id="yW2bLSi1osY_Zg3iNQNT-3" value="" style="shape=actor;whiteSpace=wrap;html=1;" parent="1" vertex="1">
          <mxGeometry x="90" y="140" width="40" height="60" as="geometry" />
        </mxCell>
        <mxCell id="yW2bLSi1osY_Zg3iNQNT-14" style="edgeStyle=orthogonalEdgeStyle;rounded=0;orthogonalLoop=1;jettySize=auto;html=1;entryX=0.5;entryY=0;entryDx=0;entryDy=0;" parent="1" source="yW2bLSi1osY_Zg3iNQNT-4" target="yW2bLSi1osY_Zg3iNQNT-7" edge="1">
          <mxGeometry relative="1" as="geometry" />
        </mxCell>
        <mxCell id="yW2bLSi1osY_Zg3iNQNT-4" value="user&lt;span style=&quot;color: rgba(0, 0, 0, 0); font-family: monospace; font-size: 0px; text-align: start; text-wrap-mode: nowrap;&quot;&gt;%3CmxGraphModel%3E%3Croot%3E%3CmxCell%20id%3D%220%22%2F%3E%3CmxCell%20id%3D%221%22%20parent%3D%220%22%2F%3E%3CmxCell%20id%3D%222%22%20value%3D%22%22%20style%3D%22shape%3Dactor%3BwhiteSpace%3Dwrap%3Bhtml%3D1%3B%22%20vertex%3D%221%22%20parent%3D%221%22%3E%3CmxGeometry%20x%3D%2290%22%20y%3D%22-20%22%20width%3D%2240%22%20height%3D%2260%22%20as%3D%22geometry%22%2F%3E%3C%2FmxCell%3E%3C%2Froot%3E%3C%2FmxGraphModel%3E&lt;/span&gt;" style="text;html=1;align=center;verticalAlign=middle;whiteSpace=wrap;rounded=0;" parent="1" vertex="1">
          <mxGeometry x="80" y="10" width="60" height="30" as="geometry" />
        </mxCell>
        <mxCell id="yW2bLSi1osY_Zg3iNQNT-15" style="edgeStyle=orthogonalEdgeStyle;rounded=0;orthogonalLoop=1;jettySize=auto;html=1;entryX=0;entryY=0.5;entryDx=0;entryDy=0;" parent="1" source="yW2bLSi1osY_Zg3iNQNT-5" target="yW2bLSi1osY_Zg3iNQNT-7" edge="1">
          <mxGeometry relative="1" as="geometry" />
        </mxCell>
        <mxCell id="yW2bLSi1osY_Zg3iNQNT-5" value="user&lt;span style=&quot;color: rgba(0, 0, 0, 0); font-family: monospace; font-size: 0px; text-align: start; text-wrap-mode: nowrap;&quot;&gt;%3CmxGraphModel%3E%3Croot%3E%3CmxCell%20id%3D%220%22%2F%3E%3CmxCell%20id%3D%221%22%20parent%3D%220%22%2F%3E%3CmxCell%20id%3D%222%22%20value%3D%22%22%20style%3D%22shape%3Dactor%3BwhiteSpace%3Dwrap%3Bhtml%3D1%3B%22%20vertex%3D%221%22%20parent%3D%221%22%3E%3CmxGeometry%20x%3D%2290%22%20y%3D%22-20%22%20width%3D%2240%22%20height%3D%2260%22%20as%3D%22geometry%22%2F%3E%3C%2FmxCell%3E%3C%2Froot%3E%3C%2FmxGraphModel%3E&lt;/span&gt;" style="text;html=1;align=center;verticalAlign=middle;whiteSpace=wrap;rounded=0;" parent="1" vertex="1">
          <mxGeometry x="80" y="85" width="60" height="30" as="geometry" />
        </mxCell>
        <mxCell id="yW2bLSi1osY_Zg3iNQNT-16" style="edgeStyle=orthogonalEdgeStyle;rounded=0;orthogonalLoop=1;jettySize=auto;html=1;" parent="1" source="yW2bLSi1osY_Zg3iNQNT-6" target="yW2bLSi1osY_Zg3iNQNT-7" edge="1">
          <mxGeometry relative="1" as="geometry" />
        </mxCell>
        <mxCell id="yW2bLSi1osY_Zg3iNQNT-6" value="user&lt;span style=&quot;color: rgba(0, 0, 0, 0); font-family: monospace; font-size: 0px; text-align: start; text-wrap-mode: nowrap;&quot;&gt;%3CmxGraphModel%3E%3Croot%3E%3CmxCell%20id%3D%220%22%2F%3E%3CmxCell%20id%3D%221%22%20parent%3D%220%22%2F%3E%3CmxCell%20id%3D%222%22%20value%3D%22%22%20style%3D%22shape%3Dactor%3BwhiteSpace%3Dwrap%3Bhtml%3D1%3B%22%20vertex%3D%221%22%20parent%3D%221%22%3E%3CmxGeometry%20x%3D%2290%22%20y%3D%22-20%22%20width%3D%2240%22%20height%3D%2260%22%20as%3D%22geometry%22%2F%3E%3C%2FmxCell%3E%3C%2Froot%3E%3C%2FmxGraphModel%3E&lt;/span&gt;" style="text;html=1;align=center;verticalAlign=middle;whiteSpace=wrap;rounded=0;" parent="1" vertex="1">
          <mxGeometry x="80" y="170" width="60" height="30" as="geometry" />
        </mxCell>
        <mxCell id="yW2bLSi1osY_Zg3iNQNT-7" value="Relationship" style="shape=rhombus;perimeter=rhombusPerimeter;whiteSpace=wrap;html=1;align=center;" parent="1" vertex="1">
          <mxGeometry x="200" y="70" width="120" height="60" as="geometry" />
        </mxCell>
        <mxCell id="yW2bLSi1osY_Zg3iNQNT-9" value="frontend" style="swimlane;dashed=1;" parent="1" vertex="1">
          <mxGeometry x="340" y="-140" width="220" height="430" as="geometry" />
        </mxCell>
        <mxCell id="yW2bLSi1osY_Zg3iNQNT-82" style="edgeStyle=orthogonalEdgeStyle;rounded=0;orthogonalLoop=1;jettySize=auto;html=1;" parent="yW2bLSi1osY_Zg3iNQNT-9" source="yW2bLSi1osY_Zg3iNQNT-11" edge="1">
          <mxGeometry relative="1" as="geometry">
            <mxPoint x="220" y="230" as="targetPoint" />
          </mxGeometry>
        </mxCell>
        <mxCell id="yW2bLSi1osY_Zg3iNQNT-11" value="" style="rounded=0;whiteSpace=wrap;html=1;" parent="yW2bLSi1osY_Zg3iNQNT-9" vertex="1">
          <mxGeometry x="55" y="80" width="110" height="300" as="geometry" />
        </mxCell>
        <mxCell id="yW2bLSi1osY_Zg3iNQNT-10" value="" style="rounded=0;whiteSpace=wrap;html=1;" parent="yW2bLSi1osY_Zg3iNQNT-9" vertex="1">
          <mxGeometry x="40" y="70" width="110" height="300" as="geometry" />
        </mxCell>
        <mxCell id="yW2bLSi1osY_Zg3iNQNT-12" value="UI" style="text;html=1;align=center;verticalAlign=middle;whiteSpace=wrap;rounded=0;" parent="yW2bLSi1osY_Zg3iNQNT-9" vertex="1">
          <mxGeometry x="65" y="80" width="60" height="30" as="geometry" />
        </mxCell>
        <mxCell id="yW2bLSi1osY_Zg3iNQNT-13" value="SPA" style="text;html=1;align=center;verticalAlign=middle;whiteSpace=wrap;rounded=0;" parent="yW2bLSi1osY_Zg3iNQNT-9" vertex="1">
          <mxGeometry x="65" y="230" width="60" height="30" as="geometry" />
        </mxCell>
        <mxCell id="yW2bLSi1osY_Zg3iNQNT-17" style="edgeStyle=orthogonalEdgeStyle;rounded=0;orthogonalLoop=1;jettySize=auto;html=1;entryX=0;entryY=0.567;entryDx=0;entryDy=0;entryPerimeter=0;" parent="1" source="yW2bLSi1osY_Zg3iNQNT-7" target="yW2bLSi1osY_Zg3iNQNT-10" edge="1">
          <mxGeometry relative="1" as="geometry" />
        </mxCell>
        <mxCell id="yW2bLSi1osY_Zg3iNQNT-18" value="backend" style="swimlane;dashed=1;" parent="1" vertex="1">
          <mxGeometry x="560" y="-140" width="750" height="430" as="geometry" />
        </mxCell>
        <mxCell id="yW2bLSi1osY_Zg3iNQNT-73" value="" style="rounded=0;whiteSpace=wrap;html=1;" parent="yW2bLSi1osY_Zg3iNQNT-18" vertex="1">
          <mxGeometry x="50" y="70" width="640" height="350" as="geometry" />
        </mxCell>
        <mxCell id="yW2bLSi1osY_Zg3iNQNT-71" value="" style="rounded=0;whiteSpace=wrap;html=1;" parent="yW2bLSi1osY_Zg3iNQNT-18" vertex="1">
          <mxGeometry x="40" y="60" width="640" height="350" as="geometry" />
        </mxCell>
        <mxCell id="yW2bLSi1osY_Zg3iNQNT-23" value="" style="rounded=0;whiteSpace=wrap;html=1;" parent="yW2bLSi1osY_Zg3iNQNT-18" vertex="1">
          <mxGeometry x="30" y="50" width="640" height="350" as="geometry" />
        </mxCell>
        <mxCell id="yW2bLSi1osY_Zg3iNQNT-28" value="" style="rounded=0;whiteSpace=wrap;html=1;" parent="yW2bLSi1osY_Zg3iNQNT-18" vertex="1">
          <mxGeometry x="460" y="60" width="200" height="330" as="geometry" />
        </mxCell>
        <mxCell id="yW2bLSi1osY_Zg3iNQNT-27" value="" style="rounded=0;whiteSpace=wrap;html=1;" parent="yW2bLSi1osY_Zg3iNQNT-18" vertex="1">
          <mxGeometry x="250" y="60" width="200" height="330" as="geometry" />
        </mxCell>
        <mxCell id="yW2bLSi1osY_Zg3iNQNT-26" value="" style="rounded=0;whiteSpace=wrap;html=1;" parent="yW2bLSi1osY_Zg3iNQNT-18" vertex="1">
          <mxGeometry x="40" y="60" width="200" height="330" as="geometry" />
        </mxCell>
        <mxCell id="yW2bLSi1osY_Zg3iNQNT-29" value="Product" style="text;html=1;align=center;verticalAlign=middle;whiteSpace=wrap;rounded=0;" parent="yW2bLSi1osY_Zg3iNQNT-18" vertex="1">
          <mxGeometry x="100" y="70" width="60" height="30" as="geometry" />
        </mxCell>
        <mxCell id="yW2bLSi1osY_Zg3iNQNT-30" value="basket" style="text;html=1;align=center;verticalAlign=middle;whiteSpace=wrap;rounded=0;" parent="yW2bLSi1osY_Zg3iNQNT-18" vertex="1">
          <mxGeometry x="320" y="70" width="60" height="30" as="geometry" />
        </mxCell>
        <mxCell id="yW2bLSi1osY_Zg3iNQNT-31" value="Order" style="text;html=1;align=center;verticalAlign=middle;whiteSpace=wrap;rounded=0;" parent="yW2bLSi1osY_Zg3iNQNT-18" vertex="1">
          <mxGeometry x="530" y="70" width="60" height="30" as="geometry" />
        </mxCell>
        <mxCell id="yW2bLSi1osY_Zg3iNQNT-51" value="" style="rounded=0;whiteSpace=wrap;html=1;" parent="yW2bLSi1osY_Zg3iNQNT-18" vertex="1">
          <mxGeometry x="290" y="255" width="150" height="50" as="geometry" />
        </mxCell>
        <mxCell id="yW2bLSi1osY_Zg3iNQNT-52" value="" style="rounded=0;whiteSpace=wrap;html=1;" parent="yW2bLSi1osY_Zg3iNQNT-18" vertex="1">
          <mxGeometry x="290" y="190" width="150" height="50" as="geometry" />
        </mxCell>
        <mxCell id="yW2bLSi1osY_Zg3iNQNT-53" value="" style="rounded=0;whiteSpace=wrap;html=1;" parent="yW2bLSi1osY_Zg3iNQNT-18" vertex="1">
          <mxGeometry x="290" y="120" width="150" height="50" as="geometry" />
        </mxCell>
        <mxCell id="yW2bLSi1osY_Zg3iNQNT-54" value="Business Logic" style="text;html=1;align=center;verticalAlign=middle;whiteSpace=wrap;rounded=0;" parent="yW2bLSi1osY_Zg3iNQNT-18" vertex="1">
          <mxGeometry x="325" y="200" width="100" height="30" as="geometry" />
        </mxCell>
        <mxCell id="yW2bLSi1osY_Zg3iNQNT-55" value="" style="rounded=0;whiteSpace=wrap;html=1;" parent="yW2bLSi1osY_Zg3iNQNT-18" vertex="1">
          <mxGeometry x="260" y="110" width="50" height="200" as="geometry" />
        </mxCell>
        <mxCell id="yW2bLSi1osY_Zg3iNQNT-56" value="add to basket" style="text;html=1;align=center;verticalAlign=middle;whiteSpace=wrap;rounded=0;rotation=90;fontStyle=1" parent="yW2bLSi1osY_Zg3iNQNT-18" vertex="1">
          <mxGeometry x="200" y="190" width="165" height="30" as="geometry" />
        </mxCell>
        <mxCell id="yW2bLSi1osY_Zg3iNQNT-57" value="UI" style="text;html=1;align=center;verticalAlign=middle;whiteSpace=wrap;rounded=0;" parent="yW2bLSi1osY_Zg3iNQNT-18" vertex="1">
          <mxGeometry x="330" y="130" width="60" height="30" as="geometry" />
        </mxCell>
        <mxCell id="yW2bLSi1osY_Zg3iNQNT-58" value="UI" style="text;html=1;align=center;verticalAlign=middle;whiteSpace=wrap;rounded=0;" parent="yW2bLSi1osY_Zg3iNQNT-18" vertex="1">
          <mxGeometry x="330" y="265" width="60" height="30" as="geometry" />
        </mxCell>
        <mxCell id="yW2bLSi1osY_Zg3iNQNT-63" value="" style="rounded=0;whiteSpace=wrap;html=1;" parent="yW2bLSi1osY_Zg3iNQNT-18" vertex="1">
          <mxGeometry x="470" y="110" width="50" height="200" as="geometry" />
        </mxCell>
        <mxCell id="yW2bLSi1osY_Zg3iNQNT-64" value="listing product" style="text;html=1;align=center;verticalAlign=middle;whiteSpace=wrap;rounded=0;rotation=90;fontStyle=1" parent="yW2bLSi1osY_Zg3iNQNT-18" vertex="1">
          <mxGeometry x="410" y="190" width="165" height="30" as="geometry" />
        </mxCell>
        <mxCell id="yW2bLSi1osY_Zg3iNQNT-39" value="" style="rounded=0;whiteSpace=wrap;html=1;" parent="yW2bLSi1osY_Zg3iNQNT-18" vertex="1">
          <mxGeometry x="80" y="255" width="150" height="50" as="geometry" />
        </mxCell>
        <mxCell id="yW2bLSi1osY_Zg3iNQNT-38" value="" style="rounded=0;whiteSpace=wrap;html=1;" parent="yW2bLSi1osY_Zg3iNQNT-18" vertex="1">
          <mxGeometry x="80" y="190" width="150" height="50" as="geometry" />
        </mxCell>
        <mxCell id="yW2bLSi1osY_Zg3iNQNT-37" value="" style="rounded=0;whiteSpace=wrap;html=1;" parent="yW2bLSi1osY_Zg3iNQNT-18" vertex="1">
          <mxGeometry x="80" y="120" width="150" height="50" as="geometry" />
        </mxCell>
        <mxCell id="yW2bLSi1osY_Zg3iNQNT-41" value="Business Logic" style="text;html=1;align=center;verticalAlign=middle;whiteSpace=wrap;rounded=0;" parent="yW2bLSi1osY_Zg3iNQNT-18" vertex="1">
          <mxGeometry x="105" y="200" width="100" height="30" as="geometry" />
        </mxCell>
        <mxCell id="yW2bLSi1osY_Zg3iNQNT-32" value="" style="rounded=0;whiteSpace=wrap;html=1;" parent="yW2bLSi1osY_Zg3iNQNT-18" vertex="1">
          <mxGeometry x="50" y="110" width="50" height="200" as="geometry" />
        </mxCell>
        <mxCell id="yW2bLSi1osY_Zg3iNQNT-33" value="listing product" style="text;html=1;align=center;verticalAlign=middle;whiteSpace=wrap;rounded=0;rotation=90;fontStyle=1" parent="yW2bLSi1osY_Zg3iNQNT-18" vertex="1">
          <mxGeometry x="-10" y="190" width="165" height="30" as="geometry" />
        </mxCell>
        <mxCell id="yW2bLSi1osY_Zg3iNQNT-40" value="UI" style="text;html=1;align=center;verticalAlign=middle;whiteSpace=wrap;rounded=0;" parent="yW2bLSi1osY_Zg3iNQNT-18" vertex="1">
          <mxGeometry x="120" y="130" width="60" height="30" as="geometry" />
        </mxCell>
        <mxCell id="yW2bLSi1osY_Zg3iNQNT-42" value="UI" style="text;html=1;align=center;verticalAlign=middle;whiteSpace=wrap;rounded=0;" parent="yW2bLSi1osY_Zg3iNQNT-18" vertex="1">
          <mxGeometry x="120" y="265" width="60" height="30" as="geometry" />
        </mxCell>
        <mxCell id="yW2bLSi1osY_Zg3iNQNT-67" value="" style="ellipse;whiteSpace=wrap;html=1;aspect=fixed;" parent="yW2bLSi1osY_Zg3iNQNT-18" vertex="1">
          <mxGeometry x="510" y="140" width="130" height="130" as="geometry" />
        </mxCell>
        <mxCell id="yW2bLSi1osY_Zg3iNQNT-68" value="" style="ellipse;whiteSpace=wrap;html=1;aspect=fixed;" parent="yW2bLSi1osY_Zg3iNQNT-18" vertex="1">
          <mxGeometry x="520" y="150" width="110" height="110" as="geometry" />
        </mxCell>
        <mxCell id="yW2bLSi1osY_Zg3iNQNT-69" value="" style="ellipse;whiteSpace=wrap;html=1;aspect=fixed;" parent="yW2bLSi1osY_Zg3iNQNT-18" vertex="1">
          <mxGeometry x="530" y="160" width="90" height="90" as="geometry" />
        </mxCell>
        <mxCell id="yW2bLSi1osY_Zg3iNQNT-70" value="clear&lt;div&gt;Architecture&lt;/div&gt;" style="text;html=1;align=center;verticalAlign=middle;whiteSpace=wrap;rounded=0;" parent="yW2bLSi1osY_Zg3iNQNT-18" vertex="1">
          <mxGeometry x="540" y="180" width="70" height="50" as="geometry" />
        </mxCell>
        <mxCell id="yW2bLSi1osY_Zg3iNQNT-74" value="" style="shape=cylinder3;whiteSpace=wrap;html=1;boundedLbl=1;backgroundOutline=1;size=15;" parent="1" vertex="1">
          <mxGeometry x="1380" y="15" width="130" height="140" as="geometry" />
        </mxCell>
        <mxCell id="yW2bLSi1osY_Zg3iNQNT-75" value="" style="shape=cylinder3;whiteSpace=wrap;html=1;boundedLbl=1;backgroundOutline=1;size=15;" parent="1" vertex="1">
          <mxGeometry x="1380" y="105" width="60" height="80" as="geometry" />
        </mxCell>
        <mxCell id="yW2bLSi1osY_Zg3iNQNT-76" value="" style="shape=cylinder3;whiteSpace=wrap;html=1;boundedLbl=1;backgroundOutline=1;size=15;" parent="1" vertex="1">
          <mxGeometry x="1450" y="105" width="60" height="80" as="geometry" />
        </mxCell>
        <mxCell id="yW2bLSi1osY_Zg3iNQNT-77" value="RDBMS&lt;span style=&quot;color: rgba(0, 0, 0, 0); font-family: monospace; font-size: 0px; text-align: start; text-wrap-mode: nowrap;&quot;&gt;%3CmxGraphModel%3E%3Croot%3E%3CmxCell%20id%3D%220%22%2F%3E%3CmxCell%20id%3D%221%22%20parent%3D%220%22%2F%3E%3CmxCell%20id%3D%222%22%20value%3D%22%22%20style%3D%22shape%3Dcylinder3%3BwhiteSpace%3Dwrap%3Bhtml%3D1%3BboundedLbl%3D1%3BbackgroundOutline%3D1%3Bsize%3D15%3B%22%20vertex%3D%221%22%20parent%3D%221%22%3E%3CmxGeometry%20x%3D%221390%22%20y%3D%2250%22%20width%3D%2260%22%20height%3D%2280%22%20as%3D%22geometry%22%2F%3E%3C%2FmxCell%3E%3C%2Froot%3E%3C%2FmxGraphModel%3E&lt;/span&gt;" style="text;html=1;align=center;verticalAlign=middle;whiteSpace=wrap;rounded=0;" parent="1" vertex="1">
          <mxGeometry x="1415" y="65" width="60" height="30" as="geometry" />
        </mxCell>
        <mxCell id="yW2bLSi1osY_Zg3iNQNT-79" value="product&lt;br&gt;schemas" style="text;html=1;align=center;verticalAlign=middle;whiteSpace=wrap;rounded=0;" parent="1" vertex="1">
          <mxGeometry x="1380" y="140" width="60" height="30" as="geometry" />
        </mxCell>
        <mxCell id="yW2bLSi1osY_Zg3iNQNT-80" value="Order&lt;br&gt;schemas" style="text;html=1;align=center;verticalAlign=middle;whiteSpace=wrap;rounded=0;" parent="1" vertex="1">
          <mxGeometry x="1450" y="140" width="60" height="30" as="geometry" />
        </mxCell>
        <mxCell id="yW2bLSi1osY_Zg3iNQNT-81" style="edgeStyle=orthogonalEdgeStyle;rounded=0;orthogonalLoop=1;jettySize=auto;html=1;entryX=0;entryY=0.5;entryDx=0;entryDy=0;entryPerimeter=0;" parent="1" source="yW2bLSi1osY_Zg3iNQNT-28" target="yW2bLSi1osY_Zg3iNQNT-74" edge="1">
          <mxGeometry relative="1" as="geometry" />
        </mxCell>
      </root>
    </mxGraphModel>
  </diagram>
</mxfile>
